# This file uses centimeters as units for non-parametric coordinates.

mtllib blwindow.mtl
g default
v 1403.136513 128.508934 -855.045189
v 1403.136513 128.508934 -839.934350
v 1399.531777 146.589866 -839.934350
v 1399.531777 146.589866 -855.045189
v 1385.435098 164.590704 -839.934350
v 1385.435098 164.590704 -855.045189
v 1359.376506 182.781102 -839.934350
v 1359.376506 182.781102 -855.045189
v 1328.651288 187.093083 -839.934350
v 1328.651288 187.093083 -855.045189
v 1297.926558 182.781102 -839.934350
v 1297.926558 182.781102 -855.045189
v 1271.867966 164.590704 -839.934350
v 1271.867966 164.590704 -855.045189
v 1257.771532 146.589866 -839.934350
v 1257.771532 146.589866 -855.045189
v 1254.166551 128.508934 -839.934350
v 1254.166551 128.508934 -855.045189
v 1254.166551 68.527981 -839.934350
v 1254.166551 68.527981 -855.045189
v 1403.136513 68.527904 -839.934350
v 1403.136513 68.527904 -855.045189
v 1414.118080 128.611900 -839.002831
v 1409.981850 149.358557 -839.002831
v 1409.981850 149.358557 -855.976585
v 1414.118080 128.611900 -855.976585
v 1393.806802 170.013326 -839.002831
v 1393.806802 170.013326 -855.976585
v 1363.906413 190.885578 -839.002831
v 1363.906413 190.885578 -855.976585
v 1328.651288 195.833286 -839.002831
v 1328.651288 195.833286 -855.976585
v 1293.396651 190.885578 -839.002831
v 1293.396651 190.885578 -855.976585
v 1263.496263 170.013326 -839.002831
v 1263.496263 170.013326 -855.976585
v 1247.321459 149.358557 -839.002831
v 1247.321459 149.358557 -855.976585
v 1243.184985 128.611900 -839.002831
v 1243.184985 128.611900 -855.976585
v 1243.184985 59.787785 -839.002831
v 1243.184985 59.787785 -855.976585
v 1414.118080 59.787701 -839.002831
v 1414.118080 59.787701 -855.976585
v 1328.651288 191.752277 -857.433616
v 1295.426681 187.268162 -857.452659
v 1267.057420 167.721136 -857.473777
v 1251.518846 148.261023 -857.496055
v 1247.547289 128.585518 -857.500145
v 1246.879320 62.742580 -857.556785
v 1410.423744 62.742500 -857.556785
v 1409.755775 128.585518 -857.500145
v 1405.784462 148.261023 -857.496055
v 1390.245645 167.721136 -857.473777
v 1361.876384 187.268162 -857.452659
v 1361.745036 187.043980 -837.499108
v 1389.429116 167.203130 -837.541711
v 1404.018593 147.803962 -837.586144
v 1407.753700 128.577583 -837.594506
v 1406.409950 65.947964 -837.708520
v 1250.893114 65.948048 -837.708520
v 1249.549364 128.577583 -837.594506
v 1253.284715 147.803962 -837.586144
v 1267.873948 167.203130 -837.541711
v 1295.558028 187.043980 -837.499108
v 1328.651288 192.047901 -837.460717
v 1263.496263 170.013326 -847.879784
v 1293.396651 190.885578 -847.879784
v 1328.651288 195.833271 -847.879784
v 1363.906413 190.885578 -847.879784
v 1393.806802 170.013326 -847.879784
v 1409.981850 149.358542 -847.879784
v 1414.118080 128.611900 -847.879784
v 1414.118080 59.787701 -847.879784
v 1243.184985 59.787785 -847.879784
v 1243.184985 128.611900 -847.879784
v 1247.321459 149.358542 -847.879784
vt 0.690510 0.707587
vt 0.736446 0.707587
vt 0.736446 0.762552
vt 0.690510 0.762552
vt 0.736446 0.525250
vt 0.690510 0.525250
vt 0.736446 0.817273
vt 0.690510 0.817273
vt 0.736446 0.872570
vt 0.690510 0.872570
vt 0.638986 0.762552
vt 0.638986 0.707587
vt 0.684922 0.707587
vt 0.684922 0.762552
vt 0.638986 0.525250
vt 0.684922 0.525250
vt 0.638986 0.817273
vt 0.684922 0.817273
vt 0.638986 0.872570
vt 0.684922 0.872570
vt 0.850821 0.734470
vt 0.850821 0.797538
vt 0.826207 0.797538
vt 0.826207 0.734470
vt 0.850821 0.860327
vt 0.826207 0.860327
vt 0.799222 0.797538
vt 0.799222 0.734470
vt 0.850821 0.525250
vt 0.826207 0.525250
vt 0.850821 0.923776
vt 0.826207 0.923776
vt 0.799222 0.860327
vt 0.799222 0.525250
vt 0.799222 0.923776
vt 0.742034 0.797538
vt 0.742034 0.734469
vt 0.766648 0.734469
vt 0.766648 0.797537
vt 0.742034 0.525250
vt 0.766648 0.525250
vt 0.793633 0.734469
vt 0.793633 0.797538
vt 0.742034 0.860326
vt 0.766648 0.860326
vt 0.793633 0.525250
vt 0.793633 0.860326
vt 0.742034 0.923776
vt 0.766648 0.923776
vt 0.793633 0.923776
vt 0.576209 0.525250
vt 0.576209 0.618652
vt 0.530273 0.618652
vt 0.530273 0.525250
vt 0.576209 0.712053
vt 0.530273 0.712053
vt 0.863176 0.988057
vt 0.863176 0.535201
vt 0.909112 0.535201
vt 0.909112 0.988057
vt 0.856410 0.998008
vt 0.856410 0.525250
vt 0.633397 0.525250
vt 0.633397 0.632423
vt 0.608783 0.632423
vt 0.608783 0.525250
vt 0.633397 0.739593
vt 0.608783 0.739593
vt 0.581798 0.632423
vt 0.581798 0.525250
vt 0.581798 0.739593
vt 0.841734 0.521614
vt 0.841734 0.001992
vt 0.866348 0.001992
vt 0.866348 0.521614
vt 0.893333 0.001992
vt 0.893333 0.521614
vt 0.211034 0.001992
vt 0.274103 0.014566
vt 0.269377 0.032694
vt 0.210930 0.021339
vt 0.336891 0.063737
vt 0.328348 0.077045
vt 0.265686 0.046333
vt 0.210721 0.035375
vt 0.001815 0.001992
vt 0.020542 0.025424
vt 0.400341 0.154631
vt 0.388663 0.161201
vt 0.320407 0.089186
vt 0.028384 0.035375
vt 0.001815 0.521614
vt 0.020542 0.498182
vt 0.415381 0.261804
vt 0.403874 0.261804
vt 0.375704 0.168402
vt 0.211034 0.521614
vt 0.210930 0.502267
vt 0.400341 0.368975
vt 0.388663 0.362405
vt 0.388812 0.261804
vt 0.028384 0.488231
vt 0.210721 0.488231
vt 0.274103 0.509040
vt 0.269377 0.490912
vt 0.336891 0.459870
vt 0.328348 0.446562
vt 0.375704 0.355204
vt 0.265686 0.477272
vt 0.320407 0.434420
vt 0.562255 0.014566
vt 0.625323 0.001992
vt 0.625403 0.015254
vt 0.565591 0.027326
vt 0.834543 0.001992
vt 0.825560 0.013223
vt 0.625636 0.035375
vt 0.570671 0.046333
vt 0.499466 0.063737
vt 0.506434 0.074562
vt 0.834542 0.521614
vt 0.825560 0.510384
vt 0.807973 0.035375
vt 0.515950 0.089186
vt 0.436016 0.154631
vt 0.447013 0.160803
vt 0.625323 0.521614
vt 0.625403 0.508353
vt 0.807973 0.488231
vt 0.460653 0.168402
vt 0.420975 0.261804
vt 0.433381 0.261804
vt 0.562255 0.509040
vt 0.565591 0.496280
vt 0.625636 0.488231
vt 0.447545 0.261804
vt 0.436016 0.368975
vt 0.447013 0.362804
vt 0.499466 0.459870
vt 0.506434 0.449044
vt 0.570671 0.477272
vt 0.460653 0.355204
vt 0.515950 0.434420
vn -0.814833 -0.081456 -0.573945
vn -0.854540 -0.081395 0.512968
vn -0.770729 -0.353167 0.530330
vn -0.744301 -0.344989 -0.571838
vn -0.587467 -0.617865 0.522614
vn -0.572294 -0.607970 -0.550320
vn -0.311418 -0.788891 0.529783
vn -0.304885 -0.783912 -0.540858
vn 0.000000 -0.852252 0.523132
vn 0.000000 -0.850506 -0.525966
vn 0.311418 -0.788891 0.529783
vn 0.304885 -0.783912 -0.540858
vn 0.587467 -0.617865 0.522614
vn 0.572294 -0.607970 -0.550320
vn 0.770729 -0.353167 0.530330
vn 0.744301 -0.344989 -0.571838
vn 0.854540 -0.081395 0.512968
vn 0.814833 -0.081456 -0.573945
vn 0.542818 0.600072 0.587590
vn 0.498412 0.520813 -0.693065
vn -0.542818 0.600072 0.587590
vn -0.498412 0.520813 -0.693065
vn 0.770911 0.076054 0.632385
vn 0.707228 0.326253 0.627206
vn -0.104802 -0.046206 0.993419
vn -0.143988 -0.011536 0.989512
vn 0.736084 0.339919 -0.585351
vn 0.815343 0.080478 -0.573358
vn 0.000763 -0.000824 -0.999999
vn -0.014008 -0.007569 -0.999873
vn 0.547627 0.579428 0.603629
vn -0.068118 -0.068667 0.995311
vn 0.561188 0.594423 -0.575959
vn -0.020112 -0.022889 -0.999536
vn 0.293566 0.753981 0.587650
vn -0.027803 -0.061404 0.997726
vn 0.296645 0.757177 -0.581967
vn -0.015626 -0.045077 -0.998861
vn 0.000000 0.822377 0.568943
vn 0.000000 -0.053896 0.998547
vn 0.000000 0.818378 -0.574680
vn 0.000000 -0.057529 -0.998344
vn -0.293566 0.753981 0.587650
vn 0.027803 -0.061404 0.997726
vn -0.296645 0.757177 -0.581967
vn 0.015626 -0.045077 -0.998861
vn -0.547627 0.579428 0.603629
vn 0.068118 -0.068667 0.995311
vn -0.561188 0.594423 -0.575959
vn 0.020112 -0.022889 -0.999536
vn -0.707228 0.326253 0.627206
vn 0.104802 -0.046206 0.993419
vn -0.736084 0.339919 -0.585351
vn 0.014008 -0.007569 -0.999873
vn -0.770911 0.076054 0.632385
vn 0.143988 -0.011536 0.989512
vn -0.815343 0.080478 -0.573358
vn -0.000763 -0.000824 -0.999999
vn -0.458219 -0.466307 0.756699
vn 0.086094 0.123969 0.988544
vn -0.503350 -0.543757 -0.671540
vn -0.006348 -0.019746 -0.999785
vn 0.458219 -0.466307 0.756699
vn -0.086094 0.123969 0.988544
vn 0.503350 -0.543757 -0.671540
vn 0.006348 -0.019746 -0.999785
vn 0.908733 0.417378 0.000000
vn 0.995166 0.098210 0.000000
vn 0.687414 0.726265 0.000000
vn 0.365743 0.930716 0.000000
vn 0.000000 1.000000 0.000000
vn -0.365743 0.930716 0.000000
vn -0.687414 0.726265 0.000000
vn -0.908733 0.417378 0.000000
vn -0.995163 0.098241 0.000000
vn -0.707107 -0.707107 0.000000
vn 0.707107 -0.707107 0.000000
s 1
g polySurface193
usemtl phong3SG
f 1/1/1 2/2/2 3/3/3 4/4/4
f 3/3/3 5/7/5 6/8/6 4/4/4
f 5/7/5 7/9/7 8/10/8 6/8/6
f 7/51/7 9/52/9 10/53/10 8/54/8
f 9/52/9 11/55/11 12/56/12 10/53/10
f 11/19/11 13/17/13 14/18/14 12/20/12
f 13/17/13 15/11/15 16/14/16 14/18/14
f 15/11/15 17/12/17 18/13/18 16/14/16
f 17/12/17 19/15/19 20/16/20 18/13/18
f 19/57/19 21/58/21 22/59/22 20/60/20
f 21/5/21 2/2/2 1/1/1 22/6/22
f 23/78/23 24/79/24 58/80/25 59/81/26
f 25/111/27 26/112/28 52/113/29 53/114/30
f 24/79/24 27/82/31 57/83/32 58/80/25
f 28/119/33 25/111/27 53/114/30 54/120/34
f 27/82/31 29/88/35 56/89/36 57/83/32
f 30/125/37 28/119/33 54/120/34 55/126/38
f 29/88/35 31/94/39 66/95/40 56/89/36
f 32/131/41 30/125/37 55/126/38 45/132/42
f 31/94/39 33/99/43 65/100/44 66/95/40
f 34/137/45 32/131/41 45/132/42 46/138/46
f 33/99/43 35/106/47 64/107/48 65/100/44
f 36/139/49 34/137/45 46/138/46 47/140/50
f 35/106/47 37/104/51 63/105/52 64/107/48
f 38/133/53 36/139/49 47/140/50 48/134/54
f 37/104/51 39/97/55 62/98/56 63/105/52
f 40/127/57 38/133/53 48/134/54 49/128/58
f 39/97/55 41/92/59 61/93/60 62/98/56
f 42/121/61 40/127/57 49/128/58 50/122/62
f 41/92/59 43/86/63 60/87/64 61/93/60
f 44/115/65 42/121/61 50/122/62 51/116/66
f 43/86/63 23/78/23 59/81/26 60/87/64
f 26/112/28 44/115/65 51/116/66 52/113/29
f 46/138/46 45/132/42 10/136/10 12/142/12
f 47/140/50 46/138/46 12/142/12 14/143/14
f 48/134/54 47/140/50 14/143/14 16/141/16
f 49/128/58 48/134/54 16/141/16 18/135/18
f 50/122/62 49/128/58 18/135/18 20/129/20
f 51/116/66 50/122/62 20/129/20 22/123/22
f 52/113/29 51/116/66 22/123/22 1/117/1
f 53/114/30 52/113/29 1/117/1 4/118/4
f 54/120/34 53/114/30 4/118/4 6/124/6
f 55/126/38 54/120/34 6/124/6 8/130/8
f 45/132/42 55/126/38 8/130/8 10/136/10
f 57/83/32 56/89/36 7/96/7 5/90/5
f 58/80/25 57/83/32 5/90/5 3/84/3
f 59/81/26 58/80/25 3/84/3 2/85/2
f 60/87/64 59/81/26 2/85/2 21/91/21
f 61/61/60 60/62/64 21/58/21 19/57/19
f 62/98/56 61/93/60 19/102/19 17/103/17
f 63/105/52 62/98/56 17/103/17 15/109/15
f 64/107/48 63/105/52 15/109/15 13/110/13
f 65/100/44 64/107/48 13/110/13 11/108/11
f 66/95/40 65/100/44 11/108/11 9/101/9
f 56/89/36 66/95/40 9/101/9 7/96/7
f 26/21/28 25/22/27 72/23/67 73/24/68
f 25/22/27 28/25/33 71/26/69 72/23/67
f 28/25/33 30/31/37 70/32/70 71/26/69
f 30/63/37 32/64/41 69/65/71 70/66/70
f 32/64/41 34/67/45 68/68/72 69/65/71
f 34/48/45 36/44/49 67/45/73 68/49/72
f 36/44/49 38/36/53 77/39/74 67/45/73
f 38/36/53 40/37/57 76/38/75 77/39/74
f 40/37/57 42/40/61 75/41/76 76/38/75
f 42/72/61 44/73/65 74/74/77 75/75/76
f 44/29/65 26/21/28 73/24/68 74/30/77
f 68/49/72 67/45/73 35/47/47 33/50/43
f 69/65/71 68/68/72 33/71/43 31/69/39
f 70/66/70 69/65/71 31/69/39 29/70/35
f 71/26/69 70/32/70 29/35/35 27/33/31
f 72/23/67 71/26/69 27/33/31 24/27/24
f 73/24/68 72/23/67 24/27/24 23/28/23
f 74/30/77 73/24/68 23/28/23 43/34/63
f 75/75/76 74/74/77 43/76/63 41/77/59
f 76/38/75 75/41/76 41/46/59 39/42/55
f 77/39/74 76/38/75 39/42/55 37/43/51
f 67/45/73 77/39/74 37/43/51 35/47/47
