# This file uses centimeters as units for non-parametric coordinates.

mtllib bowdleftw.mtl
g default
v 1528.880768 198.568180 -346.838114
v 1531.371369 198.568180 -350.701395
v 1546.813751 194.906574 -340.691996
v 1544.321563 194.906574 -336.826640
v 1559.910429 184.479329 -332.203227
v 1557.417143 184.479329 -328.335918
v 1568.661283 168.873586 -326.530864
v 1566.167509 168.873586 -322.662456
v 1571.352445 152.761328 -324.786358
v 1568.858549 152.761328 -320.917583
v 1571.735990 3.178391 -324.537700
v 1569.241850 3.178391 -320.669170
v 1491.007113 3.178448 -376.865090
v 1488.520175 3.178448 -373.007058
v 1491.390536 152.761328 -376.616188
v 1488.903476 152.761328 -372.758523
v 1494.081698 168.873586 -374.872048
v 1491.594271 168.873586 -371.013650
v 1502.832430 184.479329 -369.199685
v 1500.344515 184.479329 -365.340310
v 1515.929353 194.906574 -360.710794
v 1513.440095 194.906574 -356.849344
v 1531.477326 201.746616 -350.865336
v 1547.421905 197.965870 -340.530253
v 1544.718536 197.965870 -336.337138
v 1528.775300 201.746616 -346.674296
v 1560.944731 187.199391 -331.765239
v 1558.240141 187.199391 -327.570171
v 1569.980253 171.085927 -325.908428
v 1567.275053 171.085927 -321.712261
v 1572.759062 152.761328 -324.107280
v 1570.053617 152.761328 -319.910381
v 1573.154813 -0.000044 -323.850567
v 1570.449247 -0.000044 -319.653912
v 1489.799472 0.000017 -377.879982
v 1487.101230 0.000017 -373.694558
v 1490.029696 152.761328 -377.730935
v 1487.417636 152.761328 -373.489358
v 1492.974276 171.085927 -375.822243
v 1490.275546 171.085927 -371.636452
v 1502.009676 187.199391 -369.965676
v 1499.310580 187.199391 -365.778543
v 1515.532747 197.965870 -361.200296
v 1512.832063 197.965870 -357.011331
vt 0.424161 0.857238
vt 0.410540 0.848457
vt 0.445832 0.794008
vt 0.459461 0.802795
vt 0.388862 0.911681
vt 0.375247 0.902904
vt 0.475763 0.747830
vt 0.489399 0.756621
vt 0.358923 0.957855
vt 0.345316 0.949083
vt 0.495763 0.716975
vt 0.509403 0.725767
vt 0.338920 0.988708
vt 0.325315 0.979937
vt 0.711374 0.317843
vt 0.725014 0.309049
vt 0.909517 0.593693
vt 0.895914 0.602462
vt 0.581345 0.796514
vt 0.617786 0.852733
vt 0.603009 0.862261
vt 0.566560 0.806046
vt 0.654226 0.908953
vt 0.639456 0.918475
vt 0.550440 0.748833
vt 0.535649 0.758369
vt 0.685132 0.956634
vt 0.670369 0.966151
vt 0.529790 0.716975
vt 0.514994 0.726513
vt 0.705782 0.988492
vt 0.691023 0.998008
vt 0.620091 0.295897
vt 0.810595 0.001992
vt 0.825392 0.011532
vt 0.634848 0.305411
vt 0.262182 0.053285
vt 0.294041 0.110100
vt 0.289391 0.117900
vt 0.258535 0.062875
vt 0.303840 0.174711
vt 0.298879 0.174711
vt 0.214502 0.015323
vt 0.212358 0.026110
vt 0.305235 0.713337
vt 0.300232 0.702130
vt 0.290086 0.174711
vt 0.280598 0.117900
vt 0.158283 0.001992
vt 0.157909 0.013199
vt 0.011329 0.713337
vt 0.015587 0.702130
vt 0.291437 0.702130
vt 0.102063 0.015323
vt 0.103462 0.026110
vt 0.012141 0.174711
vt 0.016939 0.174711
vt 0.054382 0.053285
vt 0.057283 0.062875
vt 0.001815 0.713337
vt 0.002931 0.174711
vt 0.022524 0.110100
vt 0.026428 0.117900
vt 0.013008 0.110100
vt 0.312158 0.540618
vt 0.311042 0.001992
vt 0.316045 0.013199
vt 0.317397 0.540618
vt 0.604921 0.001992
vt 0.600664 0.013199
vt 0.324814 0.013199
vt 0.326166 0.540618
vt 0.322234 0.605230
vt 0.326884 0.597429
vt 0.603527 0.540618
vt 0.599313 0.540618
vt 0.335655 0.597429
vt 0.354091 0.662045
vt 0.357737 0.652454
vt 0.614461 0.001992
vt 0.613066 0.540618
vt 0.593729 0.605230
vt 0.589825 0.597429
vt 0.401767 0.700007
vt 0.403911 0.689220
vt 0.603268 0.605230
vt 0.561873 0.662045
vt 0.558971 0.652454
vt 0.457982 0.713337
vt 0.458354 0.702130
vt 0.514197 0.700007
vt 0.512797 0.689220
vn -0.376306 -0.722153 0.580421
vn 0.376219 -0.722193 -0.580428
vn 0.142921 -0.668217 -0.730110
vn -0.608341 -0.667579 0.429254
vn -0.058017 -0.513301 -0.856245
vn -0.805334 -0.512413 0.298109
vn -0.202039 -0.278856 -0.938839
vn -0.939225 -0.278243 0.201090
vn -0.985167 -0.073613 0.155008
vn -0.263136 -0.073795 -0.961932
vn 0.054568 0.420244 -0.905769
vn -0.804358 0.419605 0.420643
vn 0.802867 0.420065 -0.423026
vn -0.056033 0.420493 0.905564
vn 0.984608 -0.073612 -0.158516
vn 0.261364 -0.073795 0.962415
vn 0.201062 -0.278948 0.939022
vn 0.938800 -0.278457 -0.202769
vn 0.805288 -0.512484 -0.298115
vn 0.057895 -0.513305 0.856251
vn 0.608251 -0.667642 -0.429285
vn -0.143044 -0.668220 0.730083
vn 0.400011 0.677580 -0.617152
vn 0.617557 0.624943 -0.477566
vn -0.183267 0.625642 0.758278
vn -0.400076 0.677618 0.617068
vn 0.801064 0.476372 -0.362444
vn -0.002411 0.477315 0.878729
vn 0.922284 0.250530 -0.294325
vn 0.110022 0.251204 0.961661
vn 0.960509 0.059940 -0.271715
vn 0.146586 0.060093 0.987371
vn 0.767471 -0.395073 -0.504882
vn -0.146644 -0.395770 0.906566
vn 0.142067 -0.396933 -0.906786
vn -0.767818 -0.393645 0.505470
vn -0.154731 0.063022 -0.985945
vn -0.959380 0.062107 0.275194
vn -0.113593 0.254378 -0.960411
vn 0.002380 0.477255 -0.878762
vn -0.801121 0.476370 0.362321
vn -0.921249 0.252423 0.295944
vn 0.183207 0.625583 -0.758341
vn -0.617610 0.624965 0.477468
s 1
g polySurface204
usemtl phong5SG
f 1/1/1 2/2/2 3/3/3 4/4/4
f 4/4/4 3/3/3 5/7/5 6/8/6
f 6/8/6 5/7/5 7/11/7 8/12/8
f 10/47/9 9/42/10 11/46/11 12/53/12
f 12/15/12 11/16/11 13/17/13 14/18/14
f 14/67/14 13/71/13 15/72/15 16/68/16
f 18/13/17 17/14/18 19/10/19 20/9/20
f 20/9/20 19/10/19 21/6/21 22/5/22
f 22/5/22 21/6/21 2/2/2 1/1/1
f 23/49/23 24/43/24 3/44/3 2/50/2
f 25/91/25 26/89/26 1/90/1 4/92/4
f 24/43/24 27/37/27 5/40/5 3/44/3
f 28/87/28 25/91/25 4/92/4 6/88/6
f 27/37/27 29/38/29 7/39/7 5/40/5
f 30/82/30 28/87/28 6/88/6 8/83/8
f 29/38/29 31/41/31 9/42/10 7/39/7
f 32/75/32 30/82/30 8/83/8 10/76/9
f 31/41/31 33/45/33 11/46/11 9/42/10
f 34/69/34 32/75/32 10/76/9 12/70/12
f 33/45/33 35/51/35 13/52/13 11/46/11
f 36/66/36 34/69/34 12/70/12 14/67/14
f 35/51/35 37/56/37 15/57/15 13/52/13
f 38/65/38 36/66/36 14/67/14 16/68/16
f 39/62/39 41/58/40 19/59/19 17/63/18
f 42/78/41 40/73/42 18/74/17 20/79/20
f 41/58/40 43/54/43 21/55/21 19/59/19
f 44/84/44 42/78/41 20/79/20 22/85/22
f 43/54/43 23/49/23 2/50/2 21/55/21
f 26/89/26 44/84/44 22/85/22 1/90/1
f 24/19/24 23/20/23 26/21/26 25/22/25
f 27/25/27 24/19/24 25/22/25 28/26/28
f 29/29/29 27/25/27 28/26/28 30/30/30
f 31/81/31 29/86/29 30/82/30 32/75/32
f 33/80/33 31/81/31 32/75/32 34/69/34
f 35/33/35 33/34/33 34/35/34 36/36/36
f 37/56/37 35/51/35 36/60/36 38/61/38
f 41/27/40 39/31/39 40/32/42 42/28/41
f 43/23/43 41/27/40 42/28/41 44/24/44
f 23/20/23 43/23/43 44/24/44 26/21/26
f 40/73/42 38/65/38 16/68/16 18/74/17
f 39/62/39 37/56/37 38/61/38 40/64/42
f 15/57/15 37/56/37 39/62/39 17/63/18
f 9/42/10 10/47/9 8/48/8 7/39/7
f 16/68/16 15/72/15 17/77/18 18/74/17
