# This file uses centimeters as units for non-parametric coordinates.

mtllib bowfrontw.mtl
g default
v 1578.138822 198.568210 -237.999986
v 1582.735379 198.568210 -237.999986
v 1582.689969 194.906605 -219.597704
v 1578.090848 194.906605 -219.597704
v 1582.651517 184.479359 -203.990375
v 1578.050321 184.479359 -203.990375
v 1582.625760 168.873617 -193.561970
v 1578.023221 168.873617 -193.561970
v 1582.616605 150.466193 -189.898029
v 1578.013578 150.466193 -189.898029
v 1582.616605 3.178420 -189.898029
v 1578.013578 3.178420 -189.898029
v 1582.854276 3.178477 -286.101942
v 1578.264188 3.178477 -286.101942
v 1582.854276 150.466193 -286.101942
v 1578.264188 150.466193 -286.101942
v 1582.845120 168.873617 -282.438032
v 1578.254545 168.873617 -282.438032
v 1582.819364 184.479359 -272.009597
v 1578.227445 184.479359 -272.009597
v 1582.780912 194.906605 -256.402267
v 1578.186796 194.906605 -256.402267
v 1582.930570 201.746646 -237.999986
v 1582.883695 197.965900 -218.999010
v 1577.894437 197.965900 -218.999010
v 1577.943998 201.746646 -237.999986
v 1582.843900 187.199421 -202.883899
v 1577.852567 187.199421 -202.883899
v 1582.817288 171.085958 -192.116199
v 1577.824491 171.085958 -192.116199
v 1582.807889 150.466193 -188.333058
v 1577.814603 150.466193 -188.333058
v 1582.807889 -0.000015 -188.333058
v 1577.814603 -0.000015 -188.333058
v 1583.053250 0.000046 -287.666914
v 1578.073270 0.000046 -287.666914
v 1583.053250 150.466193 -287.666914
v 1578.073270 150.466193 -287.666914
v 1583.043851 171.085958 -283.883772
v 1578.063383 171.085958 -283.883772
v 1583.017240 187.199421 -273.116073
v 1578.035428 187.199421 -273.116073
v 1582.977445 197.965900 -257.000961
v 1577.993436 197.965900 -257.000961
v 1582.617704 152.761359 -190.354878
v 1582.853055 152.761359 -285.645094
v 1578.262967 152.761359 -285.645094
v 1578.014799 152.761359 -190.354878
v 1577.815824 152.761359 -188.804768
v 1582.809110 152.761359 -188.804768
v 1578.072294 152.761359 -287.289839
v 1583.052640 152.761359 -287.392805
vt 0.169570 0.684458
vt 0.105294 0.671668
vt 0.107319 0.661320
vt 0.169570 0.673706
vt 0.050779 0.635248
vt 0.054522 0.626046
vt 0.233846 0.671668
vt 0.231821 0.661320
vt 0.014355 0.580739
vt 0.019245 0.573256
vt 0.288360 0.635248
vt 0.284617 0.626046
vt 0.003153 0.518751
vt 0.008396 0.518751
vt 0.324785 0.580739
vt 0.319894 0.573256
vt 0.001557 0.510987
vt 0.006851 0.510987
vt 0.330743 0.518751
vt 0.336655 0.518751
vt 0.001557 0.001992
vt 0.006851 0.012744
vt 0.332288 0.510987
vt 0.337582 0.510987
vt 0.337582 0.001992
vt 0.332288 0.012744
vt 0.575252 0.671668
vt 0.510976 0.684458
vt 0.510976 0.673706
vt 0.573227 0.661320
vt 0.446700 0.671668
vt 0.448725 0.661320
vt 0.629766 0.635248
vt 0.626023 0.626046
vt 0.392186 0.635248
vt 0.395929 0.626046
vt 0.666191 0.580739
vt 0.661300 0.573256
vt 0.355761 0.580739
vt 0.360652 0.573256
vt 0.677393 0.518751
vt 0.672149 0.518751
vt 0.344239 0.518751
vt 0.349803 0.518751
vt 0.678989 0.510987
vt 0.673695 0.510987
vt 0.342964 0.510987
vt 0.348258 0.510987
vt 0.678989 0.001992
vt 0.673695 0.012744
vt 0.342964 0.001992
vt 0.348258 0.012744
vt 0.655729 0.837902
vt 0.671279 0.837902
vt 0.671125 0.900153
vt 0.655567 0.900153
vt 0.655892 0.775651
vt 0.671433 0.775651
vt 0.670995 0.952950
vt 0.655430 0.952950
vt 0.656029 0.722855
vt 0.671563 0.722855
vt 0.670908 0.988227
vt 0.655339 0.988227
vt 0.656121 0.687578
vt 0.671650 0.687578
vt 0.741231 0.503355
vt 0.756802 0.503355
vt 0.757606 0.828793
vt 0.742078 0.828793
vt 0.693560 0.778517
vt 0.693719 0.842793
vt 0.676850 0.842793
vt 0.676682 0.778517
vt 0.693877 0.907069
vt 0.677018 0.907069
vt 0.693426 0.724003
vt 0.676541 0.724003
vt 0.694012 0.961583
vt 0.677160 0.961583
vt 0.693336 0.687578
vt 0.676446 0.687578
vt 0.694102 0.998008
vt 0.677254 0.998008
vt 0.780122 0.503355
vt 0.779292 0.839380
vt 0.762401 0.839380
vt 0.763276 0.503355
vt 0.735631 0.909297
vt 0.720060 0.909297
vt 0.720907 0.583859
vt 0.736435 0.583859
vt 0.714469 0.583859
vt 0.715264 0.906206
vt 0.699738 0.906206
vt 0.698898 0.583859
vt 0.729921 0.001992
vt 0.745492 0.001992
vt 0.745492 0.500235
vt 0.729921 0.500235
vt 0.751250 0.001992
vt 0.766777 0.001992
vt 0.766777 0.500235
vt 0.751250 0.500235
vt 0.701112 0.518751
vt 0.701140 0.580739
vt 0.684251 0.580739
vt 0.684222 0.518751
vt 0.701109 0.510987
vt 0.684218 0.510987
vt 0.701109 0.001992
vt 0.684218 0.001992
vt 0.723949 0.071744
vt 0.723949 0.580739
vt 0.707103 0.580739
vt 0.707103 0.071744
vt 0.707100 0.063980
vt 0.723948 0.063980
vt 0.723918 0.001992
vt 0.707070 0.001992
vt 0.650515 0.742082
vt 0.634944 0.742082
vt 0.634973 0.687578
vt 0.650543 0.687578
vt 0.630148 0.687578
vt 0.630122 0.742082
vt 0.614593 0.742082
vt 0.614622 0.687578
vn -0.691728 -0.722156 -0.001801
vn 0.691682 -0.722201 0.001679
vn 0.691082 -0.668223 -0.275469
vn -0.690408 -0.667579 -0.278702
vn 0.688221 -0.513312 -0.512702
vn -0.686903 -0.512423 -0.515352
vn 0.679593 -0.278850 -0.678525
vn -0.677900 -0.278247 -0.680463
vn -0.878725 -0.301891 -0.369734
vn 0.880206 -0.302293 -0.365865
vn 0.790553 0.421447 -0.444306
vn -0.789097 0.420764 -0.447529
vn 0.789098 0.420795 0.447499
vn -0.790608 0.421444 0.444212
vn 0.880010 -0.300305 0.367965
vn -0.880890 -0.301524 0.364850
vn -0.680274 -0.278946 0.677802
vn 0.679093 -0.278461 0.679185
vn 0.686903 -0.512484 0.515291
vn -0.688274 -0.513307 0.512635
vn 0.690397 -0.667630 0.278607
vn -0.691137 -0.668218 0.275344
vn 0.735461 0.677565 0.001801
vn 0.736011 0.624950 0.260241
vn -0.736646 0.625616 0.256820
vn -0.735416 0.677613 -0.001892
vn 0.738702 0.476353 0.476872
vn -0.739874 0.477318 0.474083
vn 0.747103 0.250540 0.615684
vn -0.748664 0.251172 0.613526
vn 0.747960 0.125220 0.651825
vn 0.902026 0.229016 -0.365925
vn -0.749545 0.125585 0.649931
vn -0.900475 0.228743 -0.369895
vn 0.750982 0.066623 0.656953
vn 0.839697 -0.395952 0.371659
vn -0.840904 -0.396662 0.368157
vn -0.752580 0.066838 0.655100
vn 0.840905 -0.396632 -0.368188
vn -0.839641 -0.395955 -0.371783
vn 0.748602 0.046175 -0.661409
vn -0.750954 0.044588 -0.658847
vn -0.902607 0.230176 0.363759
vn -0.750069 0.105657 -0.652865
vn 0.745645 0.254378 -0.615878
vn 0.739884 0.477264 -0.474120
vn -0.738631 0.476347 -0.476988
vn -0.747924 0.252421 -0.613916
vn 0.736648 0.625588 -0.256882
vn -0.735974 0.624944 -0.260360
vn 0.743743 0.108311 -0.659633
vn 0.901527 0.231028 0.365890
s 1
g polySurface201
usemtl phong3SG
f 1/53/1 2/54/2 3/55/3 4/56/4
f 4/56/4 3/55/3 5/59/5 6/60/6
f 6/60/6 5/59/5 7/63/7 8/64/8
f 10/97/9 9/98/10 11/99/11 12/100/12
f 12/67/12 11/68/11 13/69/13 14/70/14
f 14/101/14 13/102/13 15/103/15 16/104/16
f 18/65/17 17/66/18 19/62/19 20/61/20
f 20/61/20 19/62/19 21/58/21 22/57/22
f 22/57/22 21/58/21 2/54/2 1/53/1
f 23/1/23 24/2/24 3/3/3 2/4/2
f 25/27/25 26/28/26 1/29/1 4/30/4
f 24/2/24 27/5/27 5/6/5 3/3/3
f 28/33/28 25/27/25 4/30/4 6/34/6
f 27/5/27 29/9/29 7/10/7 5/6/5
f 30/37/30 28/33/28 6/34/6 8/38/8
f 29/9/29 50/13/31 45/14/32 7/10/7
f 49/41/33 30/37/30 8/38/8 48/42/34
f 31/17/35 33/21/36 11/22/11 9/18/10
f 34/49/37 32/45/38 10/46/9 12/50/12
f 33/21/36 35/25/39 13/26/13 11/22/11
f 36/51/40 34/49/37 12/50/12 14/52/14
f 35/25/39 37/24/41 15/23/15 13/26/13
f 38/47/42 36/51/40 14/52/14 16/48/16
f 47/44/43 51/43/44 38/47/42 16/48/16
f 39/15/45 41/11/46 19/12/19 17/16/18
f 42/35/47 40/39/48 18/40/17 20/36/20
f 41/11/46 43/7/49 21/8/21 19/12/19
f 44/31/50 42/35/47 20/36/20 22/32/22
f 43/7/49 23/1/23 2/4/2 21/8/21
f 26/28/26 44/31/50 22/32/22 1/29/1
f 24/71/24 23/72/23 26/73/26 25/74/25
f 27/77/27 24/71/24 25/74/25 28/78/28
f 29/81/29 27/77/27 28/78/28 30/82/30
f 50/105/31 29/106/29 30/107/30 49/108/33
f 33/111/36 31/109/35 32/110/38 34/112/37
f 35/85/39 33/86/36 34/87/37 36/88/40
f 37/113/41 35/114/39 36/115/40 38/116/42
f 51/117/44 52/118/51 37/113/41 38/116/42
f 41/79/46 39/83/45 40/84/48 42/80/47
f 43/75/49 41/79/46 42/80/47 44/76/50
f 23/72/23 43/75/49 44/76/50 26/73/26
f 9/89/10 10/90/9 16/91/16 15/92/15
f 45/14/32 9/18/10 15/23/15 46/19/52
f 10/46/9 48/42/34 47/44/43 16/48/16
f 32/45/38 49/41/33 48/42/34 10/46/9
f 31/109/35 50/105/31 49/108/33 32/110/38
f 45/14/32 50/13/31 31/17/35 9/18/10
f 40/39/48 51/43/44 47/44/43 18/40/17
f 39/119/45 52/118/51 51/117/44 40/120/48
f 46/19/52 52/20/51 39/15/45 17/16/18
f 45/93/32 46/94/52 47/95/43 48/96/34
f 45/121/32 48/122/34 8/123/8 7/124/7
f 46/125/52 17/126/18 18/127/17 47/128/43
f 15/23/15 37/24/41 52/20/51 46/19/52
