# This file uses centimeters as units for non-parametric coordinates.

mtllib bowfrontrw.mtl
g default
v 1525.042280 198.568210 -125.728593
v 1527.509007 198.568210 -121.849982
v 1511.956272 194.906605 -112.012872
v 1509.488406 194.906605 -115.893843
v 1498.766085 184.479359 -103.670025
v 1496.296937 184.479359 -107.552751
v 1489.952527 168.873617 -98.095678
v 1487.482555 168.873617 -101.979289
v 1487.242004 152.761359 -96.381491
v 1484.771796 152.761359 -100.265354
v 1486.855799 5.513879 -96.137130
v 1484.385722 5.513879 -100.021232
v 1568.162083 5.513936 -147.562595
v 1565.698825 5.513936 -151.435588
v 1567.775643 152.761359 -147.318486
v 1565.312633 152.761359 -151.191593
v 1565.065355 168.873617 -145.604046
v 1562.601874 168.873617 -149.477658
v 1556.251798 184.479359 -140.029700
v 1553.787618 184.479359 -143.904313
v 1543.061485 194.906605 -131.686735
v 1540.596032 194.906605 -135.563348
v 1527.613545 201.746646 -121.685101
v 1511.554956 197.965900 -111.528169
v 1508.877621 197.965900 -115.738185
v 1524.937720 201.746646 -125.892865
v 1497.935723 187.199421 -102.913876
v 1495.257106 187.199421 -107.125646
v 1488.835387 171.085958 -97.158143
v 1486.156076 171.085958 -101.371037
v 1486.036677 152.761359 -95.388039
v 1483.357017 152.761359 -99.601434
v 1485.637987 2.335444 -95.135930
v 1482.958327 2.335444 -99.349325
v 1569.589238 2.335505 -148.234633
v 1566.916881 2.335505 -152.436779
v 1569.357416 152.761359 -148.087971
v 1566.598121 152.761359 -152.235012
v 1566.391834 171.085958 -146.212298
v 1563.719250 171.085958 -150.414941
v 1557.291742 187.199421 -140.456557
v 1554.618211 187.199421 -144.660088
v 1543.672021 197.965900 -131.842280
v 1540.997583 197.965900 -136.047798
vt 0.487010 0.840271
vt 0.500257 0.831181
vt 0.536514 0.884306
vt 0.523260 0.893399
vt 0.450761 0.787142
vt 0.464000 0.778058
vt 0.567264 0.929361
vt 0.554003 0.938459
vt 0.420017 0.742082
vt 0.433250 0.733003
vt 0.587810 0.959466
vt 0.574546 0.968567
vt 0.399475 0.711975
vt 0.412705 0.702897
vt 0.808503 0.589402
vt 0.795238 0.580300
vt 0.984781 0.302576
vt 0.998008 0.311652
vt 0.646911 0.890207
vt 0.684347 0.835355
vt 0.698718 0.845215
vt 0.661289 0.900072
vt 0.721784 0.780503
vt 0.736147 0.790357
vt 0.615160 0.936728
vt 0.629545 0.946598
vt 0.753534 0.733981
vt 0.767891 0.743832
vt 0.593946 0.967813
vt 0.608335 0.977685
vt 0.774749 0.702897
vt 0.789102 0.712745
vt 0.624612 0.001951
vt 0.820323 0.288710
vt 0.805932 0.298584
vt 0.610260 0.011799
vt 0.003354 0.173158
vt 0.012915 0.109112
vt 0.017474 0.116845
vt 0.008215 0.173158
vt 0.044002 0.052795
vt 0.047582 0.062302
vt 0.017317 0.173158
vt 0.026575 0.116845
vt 0.001992 0.698905
vt 0.006896 0.687797
vt 0.090527 0.015165
vt 0.092642 0.025858
vt 0.015998 0.687797
vt 0.288778 0.698905
vt 0.284645 0.687796
vt 0.145385 0.001951
vt 0.145770 0.013060
vt 0.287689 0.173158
vt 0.283326 0.173158
vt 0.200243 0.015165
vt 0.198899 0.025858
vt 0.297833 0.173158
vt 0.298625 0.698905
vt 0.277855 0.109112
vt 0.274067 0.116845
vt 0.246768 0.052795
vt 0.243959 0.062302
vt 0.287703 0.109112
vt 0.602856 0.001952
vt 0.602064 0.527699
vt 0.596633 0.527699
vt 0.597953 0.013061
vt 0.591934 0.591744
vt 0.587375 0.584012
vt 0.588877 0.013061
vt 0.587557 0.527699
vt 0.316097 0.001951
vt 0.320229 0.013060
vt 0.560850 0.648062
vt 0.557270 0.638555
vt 0.578298 0.584012
vt 0.317459 0.527699
vt 0.321548 0.527699
vt 0.514328 0.685692
vt 0.512215 0.674999
vt 0.307585 0.527699
vt 0.306223 0.001951
vt 0.327019 0.591744
vt 0.330806 0.584012
vt 0.459476 0.698905
vt 0.459091 0.687797
vt 0.317146 0.591744
vt 0.358104 0.648062
vt 0.360912 0.638555
vt 0.404624 0.685692
vt 0.405966 0.674999
vn -0.369675 -0.722149 -0.584672
vn 0.369741 -0.722184 0.584586
vn 0.603312 -0.668219 0.435314
vn -0.135307 -0.667581 -0.732139
vn 0.801969 -0.513301 0.305563
vn 0.066208 -0.512423 -0.856177
vn 0.937249 -0.278852 0.209298
vn 0.210366 -0.278244 -0.937191
vn 0.271431 -0.073643 -0.959637
vn 0.983782 -0.073826 0.163469
vn 0.799836 0.420245 0.428552
vn -0.045450 0.419580 -0.906580
vn 0.048241 0.420065 0.906211
vn -0.799021 0.420501 -0.429818
vn -0.268017 -0.073644 0.960595
vn -0.983473 -0.073826 -0.165321
vn -0.937005 -0.278944 -0.210267
vn -0.208664 -0.278453 0.937509
vn -0.066177 -0.512446 0.856165
vn -0.801934 -0.513301 -0.305653
vn 0.135368 -0.667606 0.732105
vn -0.603239 -0.668210 -0.435428
vn 0.393121 0.677589 0.621554
vn 0.175323 0.624951 0.760722
vn -0.612007 0.625648 -0.483748
vn -0.393028 0.677618 -0.621580
vn -0.005999 0.476340 0.879241
vn -0.797091 0.477316 -0.369886
vn -0.118540 0.250503 0.960831
vn -0.919465 0.251203 -0.302459
vn -0.155089 0.059970 0.986079
vn -0.958117 0.060153 -0.279989
vn 0.137399 -0.395070 0.908318
vn -0.762038 -0.395743 -0.512529
vn 0.764131 -0.396931 0.508477
vn -0.137806 -0.393635 -0.908879
vn 0.960223 0.063022 0.272031
vn 0.151499 0.062106 -0.986504
vn 0.919825 0.254411 0.298658
vn 0.797134 0.477262 0.369862
vn 0.006121 0.476341 -0.879239
vn 0.116637 0.252426 -0.960561
vn 0.612096 0.625584 0.483718
vn -0.175197 0.624970 -0.760735
s 1
g polySurface203
usemtl phong4SG
f 1/1/1 2/2/2 3/3/3 4/4/4
f 4/4/4 3/3/3 5/7/5 6/8/6
f 6/8/6 5/7/5 7/11/7 8/12/8
f 10/40/9 9/43/10 11/49/11 12/46/12
f 12/15/12 11/16/11 13/17/13 14/18/14
f 14/71/14 13/68/13 15/67/15 16/72/16
f 18/13/17 17/14/18 19/10/19 20/9/20
f 20/9/20 19/10/19 21/6/21 22/5/22
f 22/5/22 21/6/21 2/2/2 1/1/1
f 23/86/23 24/91/24 3/92/3 2/87/2
f 25/47/25 26/52/26 1/53/1 4/48/4
f 24/91/24 27/89/27 5/90/5 3/92/3
f 28/41/28 25/47/25 4/48/4 6/42/6
f 27/89/27 29/84/29 7/85/7 5/90/5
f 30/38/30 28/41/28 6/42/6 8/39/8
f 29/84/29 31/78/31 9/79/10 7/85/7
f 32/37/32 30/38/30 8/39/8 10/40/9
f 31/78/31 33/73/33 11/74/11 9/79/10
f 34/45/34 32/37/32 10/40/9 12/46/12
f 33/73/33 35/65/35 13/68/13 11/74/11
f 36/50/36 34/45/34 12/46/12 14/51/14
f 35/65/35 37/66/37 15/67/15 13/68/13
f 38/54/38 36/50/36 14/51/14 16/55/16
f 39/69/39 41/75/40 19/76/19 17/70/18
f 42/62/41 40/60/42 18/61/17 20/63/20
f 41/75/40 43/80/43 21/81/21 19/76/19
f 44/56/44 42/62/41 20/63/20 22/57/22
f 43/80/43 23/86/23 2/87/2 21/81/21
f 26/52/26 44/56/44 22/57/22 1/53/1
f 24/19/24 23/20/23 26/21/26 25/22/25
f 27/25/27 24/19/24 25/22/25 28/26/28
f 29/29/29 27/25/27 28/26/28 30/30/30
f 31/78/31 29/84/29 30/88/30 32/82/32
f 33/73/33 31/78/31 32/82/32 34/83/34
f 35/33/35 33/34/33 34/35/34 36/36/36
f 37/58/37 35/59/35 36/50/36 38/54/38
f 41/27/40 39/31/39 40/32/42 42/28/41
f 43/23/43 41/27/40 42/28/41 44/24/44
f 23/20/23 43/23/43 44/24/44 26/21/26
f 40/60/42 38/54/38 16/55/16 18/61/17
f 39/64/39 37/58/37 38/54/38 40/60/42
f 15/67/15 37/66/37 39/69/39 17/70/18
f 9/43/10 10/40/9 8/39/8 7/44/7
f 16/72/16 15/67/15 17/70/18 18/77/17
