# This file uses centimeters as units for non-parametric coordinates.

mtllib dormtwindow.mtl
g default
v 5.776640 5.967496 -195.426685
v 0.958037 5.967496 -195.426685
v 1.091338 5.995328 -157.341055
v 5.643340 5.995328 -157.341055
v 5.776640 5.848601 -324.572246
v 0.958037 5.878321 -324.573162
v 5.643340 5.995328 -362.658914
v 1.091338 5.995328 -362.658914
v 5.643340 144.696723 -362.658914
v 1.091338 144.696723 -362.658914
v 5.643340 144.621528 -317.451153
v 1.091338 144.621528 -317.451153
v 5.643340 154.039862 -317.549786
v 1.091338 154.039862 -317.549786
v 5.643340 168.904851 -303.797956
v 1.091338 168.904851 -303.797956
v 5.643340 179.044987 -283.698591
v 1.091338 179.044987 -283.698591
v 5.643340 182.605778 -259.999985
v 1.091338 182.605778 -259.999985
v 5.643340 179.044987 -236.301500
v 1.091338 179.044987 -236.301500
v 5.643340 168.904851 -216.202013
v 1.091338 168.904851 -216.202013
v 5.643340 154.039862 -202.548572
v 1.091338 154.039862 -202.548572
v 5.643339 144.621528 -202.548572
v 1.091338 144.621528 -202.548572
v 5.643340 144.696723 -157.341055
v 1.091338 144.696723 -157.341055
v 0.950713 0.592008 -195.426685
v 0.950713 0.592008 -150.999991
v 5.783965 0.592008 -150.999991
v 5.783965 0.592008 -195.426685
v 0.950713 0.592008 -324.573162
v 5.783965 0.592008 -324.573162
v 0.950713 0.592008 -368.999978
v 5.783965 0.592008 -368.999978
v 0.950713 147.758612 -368.999978
v 5.783965 147.758612 -368.999978
v 0.950713 148.320990 -320.999859
v 5.783965 148.320990 -320.999859
v 0.950713 157.678900 -320.999859
v 5.783965 157.678900 -320.999859
v 0.950713 173.461980 -306.503278
v 5.783965 173.461980 -306.503278
v 0.950713 184.228459 -285.162337
v 5.783965 184.228459 -285.162337
v 0.950713 188.009220 -259.999985
v 5.783965 188.009220 -259.999985
v 0.950713 184.228459 -234.837632
v 5.783965 184.228459 -234.837632
v 0.950713 173.461980 -213.496691
v 5.783965 173.461980 -213.496691
v 0.950713 157.678900 -198.999988
v 5.783965 157.678900 -198.999988
v 0.950713 147.678900 -198.999988
v 5.783965 147.678900 -198.999988
v 0.950713 147.758612 -150.999991
v 5.783965 147.758612 -150.999991
v 5.783965 147.678900 -202.665027
v 6.175932 148.320990 -317.450665
v 0.593657 148.320990 -317.450665
v 0.193999 147.678900 -202.665027
v 5.776640 144.621528 -324.572246
v 0.958037 144.621528 -324.572368
v 5.776639 144.621528 -195.426685
v 0.958037 144.621528 -195.426685
v 1.091338 5.967494 -317.451153
v 5.643340 5.967494 -317.451153
v 1.091338 5.967494 -202.548572
v 5.643340 5.967494 -202.548572
v 5.783965 0.592008 -202.548572
v 0.950713 0.592008 -202.548572
v 5.783965 0.592008 -317.451153
v 0.950713 0.592008 -317.451153
v 6.120024 148.229254 -301.052716
v 0.536528 148.229254 -301.052716
v 1.091338 144.621528 -301.036603
v 5.643340 144.621528 -301.036603
v 6.064116 148.137519 -284.654768
v 0.479399 148.137519 -284.654768
v 1.091338 144.621528 -284.621931
v 5.643340 144.621528 -284.621931
v 6.008086 148.045798 -259.999985
v 0.422270 148.045798 -259.999985
v 1.091338 144.621528 -259.999985
v 5.643340 144.621528 -259.999985
v 5.952055 147.954077 -235.461046
v 0.365264 147.954077 -236.301500
v 1.091338 144.621528 -236.301500
v 5.643340 144.621528 -235.461046
v 5.896025 147.862342 -218.963244
v 0.308135 147.862342 -218.963244
v 1.091338 144.621528 -218.963244
v 5.643340 144.621528 -218.963244
v 1.091338 144.621543 -317.451153
v 5.643340 144.621543 -317.451153
vt 0.001992 0.112503
vt 0.001992 0.001849
vt 0.015450 0.017642
vt 0.015381 0.112503
vt 0.379304 0.001849
vt 0.371678 0.017642
vt 0.015381 0.130241
vt 0.001992 0.130241
vt 0.379105 0.121403
vt 0.371490 0.112503
vt 0.015381 0.416430
vt 0.001992 0.416430
vt 0.371490 0.130241
vt 0.379105 0.130531
vt 0.001992 0.434169
vt 0.015159 0.434169
vt 0.404012 0.121403
vt 0.394949 0.130241
vt 0.379562 0.171125
vt 0.371490 0.171125
vt 0.371490 0.416430
vt 0.371490 0.434167
vt 0.001992 0.544823
vt 0.015450 0.529029
vt 0.443323 0.157510
vt 0.431973 0.164248
vt 0.379791 0.214310
vt 0.371490 0.214310
vt 0.379304 0.544823
vt 0.371678 0.529029
vt 0.470140 0.210664
vt 0.457229 0.214310
vt 0.380019 0.273336
vt 0.371490 0.273336
vt 0.380705 0.425269
vt 0.479556 0.273336
vt 0.466098 0.273336
vt 0.380248 0.334744
vt 0.371490 0.334662
vt 0.371490 0.416430
vt 0.380705 0.416429
vt 0.470140 0.336008
vt 0.457229 0.332362
vt 0.380476 0.375586
vt 0.371490 0.375546
vt 0.404012 0.425269
vt 0.394949 0.416676
vt 0.443323 0.389162
vt 0.431973 0.382424
vt 0.487476 0.544823
vt 0.487476 0.434169
vt 0.500865 0.434169
vt 0.500934 0.529029
vt 0.487476 0.416431
vt 0.500865 0.416431
vt 0.864788 0.544823
vt 0.857162 0.529029
vt 0.487476 0.130242
vt 0.500865 0.130242
vt 0.856974 0.416431
vt 0.856974 0.434169
vt 0.864589 0.425269
vt 0.487476 0.112503
vt 0.500569 0.112505
vt 0.864589 0.416141
vt 0.487476 0.001849
vt 0.500934 0.017642
vt 0.856974 0.112505
vt 0.856974 0.130242
vt 0.856974 0.375547
vt 0.865046 0.375547
vt 0.880433 0.416431
vt 0.889496 0.425269
vt 0.864788 0.001849
vt 0.857162 0.017642
vt 0.856974 0.334455
vt 0.865275 0.334455
vt 0.917457 0.382424
vt 0.928807 0.389162
vt 0.866189 0.121403
vt 0.856974 0.273336
vt 0.865503 0.273336
vt 0.942713 0.332362
vt 0.955624 0.336008
vt 0.856974 0.130242
vt 0.866189 0.130243
vt 0.856974 0.212010
vt 0.865732 0.211928
vt 0.951582 0.273336
vt 0.965040 0.273336
vt 0.889496 0.121403
vt 0.880433 0.129996
vt 0.865960 0.171086
vt 0.856974 0.171126
vt 0.942713 0.214310
vt 0.955624 0.210664
vt 0.928807 0.157510
vt 0.917457 0.164248
vt 0.729754 0.643675
vt 0.717752 0.643675
vt 0.718084 0.548815
vt 0.729422 0.548815
vt 0.765696 0.643677
vt 0.754358 0.643677
vt 0.754026 0.548817
vt 0.766028 0.548815
vt 0.747891 0.643677
vt 0.735889 0.643677
vt 0.736221 0.548815
vt 0.747559 0.548815
vt 0.711285 0.643675
vt 0.699947 0.643675
vt 0.699615 0.548815
vt 0.711617 0.548815
vt 0.837321 0.835004
vt 0.825984 0.835004
vt 0.825984 0.794119
vt 0.837321 0.794119
vt 0.825984 0.750935
vt 0.837321 0.753028
vt 0.825984 0.691909
vt 0.837321 0.691909
vt 0.825984 0.630583
vt 0.837321 0.630583
vt 0.825984 0.589699
vt 0.837321 0.589699
vt 0.825984 0.548815
vt 0.837321 0.548815
vt 0.843457 0.816574
vt 0.843457 0.763420
vt 0.855495 0.763420
vt 0.855495 0.816574
vt 0.843457 0.700748
vt 0.855495 0.700748
vt 0.843457 0.852681
vt 0.855495 0.852681
vt 0.843457 0.638076
vt 0.855495 0.638076
vt 0.843457 0.584922
vt 0.855495 0.584922
vt 0.843457 0.548815
vt 0.855495 0.548815
vt 0.790337 0.668369
vt 0.790337 0.548815
vt 0.802375 0.548815
vt 0.802375 0.668369
vt 0.772164 0.668369
vt 0.772164 0.548815
vt 0.784202 0.548815
vt 0.784202 0.668369
vt 0.972765 0.544823
vt 0.972765 0.434169
vt 0.984803 0.434169
vt 0.984803 0.544823
vt 0.972765 0.416431
vt 0.984803 0.416431
vt 0.972765 0.130242
vt 0.984803 0.130242
vt 0.972765 0.112503
vt 0.984803 0.112503
vt 0.972765 0.001849
vt 0.984803 0.001849
vt 0.808511 0.835003
vt 0.808511 0.548815
vt 0.819848 0.548815
vt 0.819848 0.835003
vt 0.943524 0.905042
vt 0.932186 0.905042
vt 0.932186 0.548815
vt 0.943524 0.548815
vt 0.926051 0.548815
vt 0.926051 0.905042
vt 0.914713 0.905042
vt 0.914713 0.548815
vt 0.908578 0.904924
vt 0.897240 0.904924
vt 0.897240 0.548815
vt 0.908578 0.548815
vt 0.949659 0.548815
vt 0.961661 0.548815
vt 0.961661 0.905220
vt 0.949659 0.905146
vt 0.891105 0.904924
vt 0.879103 0.904924
vt 0.879103 0.548815
vt 0.891105 0.548815
vt 0.861630 0.548815
vt 0.872968 0.548815
vt 0.872968 0.904924
vt 0.861630 0.904924
vt 0.985970 0.926126
vt 0.985970 0.548815
vt 0.998008 0.548815
vt 0.998008 0.926126
vt 0.967796 0.926126
vt 0.967796 0.548815
vt 0.979834 0.548815
vt 0.979834 0.926126
vt 0.681442 0.573722
vt 0.681442 0.548815
vt 0.693480 0.548815
vt 0.693480 0.573722
vt 0.675306 0.572122
vt 0.663268 0.572122
vt 0.663268 0.548815
vt 0.675306 0.548815
vn 0.904351 0.310047 0.293292
vn -0.904351 0.310047 0.293292
vn -0.811562 0.411793 -0.414479
vn 0.811562 0.411793 -0.414479
vn 0.811602 0.411218 0.414972
vn -0.810726 0.412077 0.415831
vn -0.904366 0.310469 -0.292798
vn 0.904719 0.309925 -0.292285
vn 0.810832 -0.414602 0.413107
vn -0.810832 -0.414602 0.413107
vn 0.896603 -0.324117 -0.301747
vn -0.897146 -0.323352 -0.300951
vn 0.810501 -0.415459 -0.412895
vn -0.810501 -0.415459 -0.412895
vn -0.888817 -0.337819 0.309650
vn 0.901945 -0.317739 0.292469
vn -0.712107 -0.702066 -0.002747
vn -0.821249 -0.404658 0.402247
vn 0.821249 -0.404658 0.402247
vn 0.712107 -0.702066 -0.002747
vn -0.898866 0.311667 0.308066
vn -0.714118 -0.700018 0.003296
vn -0.714118 -0.700018 -0.003327
vn -0.898866 0.311636 -0.308096
vn 0.714118 -0.700018 -0.003327
vn 0.898866 0.311636 -0.308096
vn -0.821269 -0.404622 -0.402242
vn -0.712137 -0.702035 0.002716
vn 0.712167 -0.702004 0.002716
vn 0.821269 -0.404622 -0.402242
vn -0.820720 0.401204 -0.406759
vn 0.820720 0.401204 -0.406759
vn 0.789487 -0.475621 0.387937
vn 0.903611 0.286911 -0.318071
vn 0.999399 -0.031648 -0.014161
vn -0.731640 0.252700 -0.633124
vn -0.904182 0.287274 -0.316114
vn -0.999366 -0.032594 -0.014313
vn -0.999842 0.017213 -0.004517
vn 0.730824 0.253283 -0.633833
vn 0.999836 0.017579 -0.004364
vn -0.722354 0.551570 -0.417103
vn -0.999990 0.004334 0.001099
vn 0.722354 0.551570 -0.417103
vn 0.999991 0.002777 0.003296
vn -0.720816 0.660478 -0.210220
vn -0.999997 -0.001923 0.001373
vn 0.720816 0.660478 -0.210220
vn 0.999982 -0.005097 0.003235
vn -0.720228 0.693737 0.000000
vn -0.999996 -0.002777 -0.000519
vn 0.720228 0.693737 0.000000
vn 0.999972 -0.007416 0.000549
vn -0.720816 0.660478 0.210220
vn -0.999997 0.000000 -0.002289
vn 0.720816 0.660478 0.210220
vn 0.999971 -0.007202 -0.002350
vn -0.722313 0.551615 0.417115
vn -0.999938 0.011140 -0.000092
vn 0.722313 0.551615 0.417115
vn 0.999980 -0.004639 -0.004364
vn -0.722329 0.257582 0.641789
vn -0.999287 0.031374 0.020997
vn 0.739723 0.246595 0.626100
vn 0.999936 0.001068 -0.011292
vn 0.911324 0.289380 0.292828
vn 0.822835 0.401300 0.402369
vn -0.997304 -0.064884 0.034273
vn -0.900444 0.276322 0.335927
vn -0.822835 0.401300 0.402369
vn 0.894134 -0.326316 -0.306662
vn -0.869989 -0.402949 -0.284167
vn -0.616024 -0.787724 -0.002197
vn 0.680530 -0.732719 0.001526
vn 0.999822 -0.017975 -0.005676
vn 0.999511 -0.030886 0.004853
vn -0.995001 -0.099674 0.006256
vn -0.789026 -0.476535 0.387753
vn 0.898857 0.311695 0.308063
vn 0.714148 -0.699987 0.003296
vn -0.651087 -0.759002 -0.001404
vn -0.998086 -0.061312 -0.008118
vn 0.659193 -0.751973 0.000855
vn 0.998630 -0.052156 -0.004151
vn -0.643561 -0.765394 -0.001190
vn -0.997128 -0.075657 -0.003479
vn 0.663799 -0.747911 0.000732
vn 0.998639 -0.052157 -0.000153
vn -0.635649 -0.771977 -0.000977
vn -0.996278 -0.086187 -0.001282
vn 0.668636 -0.743590 0.000610
vn 0.998876 -0.047395 0.001007
vn -0.627270 -0.778801 -0.001190
vn -0.995505 -0.094701 0.000732
vn 0.673744 -0.738964 0.000794
vn 0.999161 -0.040895 0.002197
vn -0.999825 0.000000 0.018708
vn 0.999825 0.000000 0.018708
s 1
g polySurface197
usemtl phong3SG
f 1/99/1 2/100/2 3/101/3 4/102/4
f 7/103/5 8/104/6 6/105/7 5/106/8
f 9/167/9 10/168/10 8/169/6 7/170/5
f 65/107/11 66/108/12 10/109/10 9/110/9
f 29/111/13 30/112/14 68/113/15 67/114/16
f 29/171/13 4/172/4 3/173/3 30/174/14
f 31/1/17 32/2/18 3/3/3 2/4/2
f 33/50/19 34/51/20 1/52/1 4/53/4
f 69/11/21 76/12/22 74/8/23 71/7/24
f 34/51/20 73/54/25 72/55/26 1/52/1
f 37/23/27 35/15/28 6/16/7 8/24/6
f 36/63/29 38/66/30 7/67/5 5/64/8
f 39/29/31 37/23/27 8/24/6 10/30/10
f 38/66/30 40/74/32 9/75/9 7/67/5
f 11/85/33 65/68/11 42/80/34 62/86/35
f 43/46/36 41/35/37 63/41/38 14/47/39
f 62/86/35 42/80/34 44/91/40 13/92/41
f 45/48/42 43/46/36 14/47/39 16/49/43
f 44/91/40 46/97/44 15/98/45 13/92/41
f 47/42/46 45/48/42 16/49/43 18/43/47
f 46/97/44 48/96/48 17/95/49 15/98/45
f 49/36/50 47/42/46 18/43/47 20/37/51
f 48/96/48 50/90/52 19/89/53 17/95/49
f 51/31/54 49/36/50 20/37/51 22/32/55
f 50/90/52 52/84/56 21/83/57 19/89/53
f 53/25/58 51/31/54 22/32/55 24/26/59
f 52/84/56 54/79/60 23/78/61 21/83/57
f 55/17/62 53/25/58 24/26/59 26/18/63
f 54/79/60 56/73/64 25/72/65 23/78/61
f 67/61/16 58/62/66 60/56/67 29/57/13
f 64/14/68 57/9/69 55/17/62 26/18/63
f 60/56/67 33/50/19 4/53/4 29/57/13
f 32/2/18 59/5/70 30/6/14 3/3/3
f 27/115/71 28/116/72 95/117/73 96/118/74
f 61/65/75 27/60/71 96/70/74 93/71/76
f 28/13/72 64/14/68 94/19/77 95/20/73
f 61/65/75 25/72/65 56/73/64 58/62/66
f 66/22/12 41/35/37 39/29/31 10/30/10
f 12/40/78 63/41/38 41/35/37 66/22/12
f 42/80/34 65/68/11 9/75/9 40/74/32
f 27/60/71 61/65/75 58/62/66 67/61/16
f 57/9/69 68/10/15 30/6/14 59/5/70
f 28/13/72 68/10/15 57/9/69 64/14/68
f 11/175/33 12/176/78 69/177/21 70/178/79
f 66/179/12 65/180/11 5/181/8 6/182/7
f 67/183/16 68/184/15 2/185/2 1/186/1
f 28/187/72 27/188/71 72/189/26 71/190/24
f 27/60/71 67/61/16 1/52/1 72/55/26
f 70/59/79 75/58/80 36/63/29 5/64/8
f 71/7/24 74/8/23 31/1/17 2/4/2
f 72/55/26 73/54/25 75/58/80 70/59/79
f 35/15/28 76/12/22 69/11/21 6/16/7
f 43/135/36 45/129/42 46/132/44 44/136/40
f 45/129/42 47/130/46 48/131/48 46/132/44
f 47/130/46 49/133/50 50/134/52 48/131/48
f 49/133/50 51/137/54 52/138/56 50/134/52
f 51/137/54 53/139/58 54/140/60 52/138/56
f 53/139/58 55/141/62 56/142/64 54/140/60
f 39/143/31 41/144/37 42/145/34 40/146/32
f 57/147/69 59/148/70 60/149/67 58/150/66
f 37/191/27 39/192/31 40/193/32 38/194/30
f 59/195/70 32/196/18 33/197/19 60/198/67
f 32/151/18 31/152/17 34/153/20 33/154/19
f 31/152/17 74/155/23 73/156/25 34/153/20
f 35/159/28 37/161/27 38/162/30 36/160/29
f 74/155/23 76/157/22 75/158/80 73/156/25
f 76/157/22 35/159/28 36/160/29 75/158/80
f 55/199/62 57/200/69 58/201/66 56/202/64
f 79/45/81 78/44/82 63/41/38 12/40/78
f 80/126/83 79/125/81 12/127/78 11/128/33
f 62/86/35 77/93/84 80/94/83 11/85/33
f 83/39/85 82/38/86 78/44/82 79/45/81
f 84/124/87 83/123/85 79/125/81 80/126/83
f 80/94/83 77/93/84 81/88/88 84/87/87
f 87/34/89 86/33/90 82/38/86 83/39/85
f 88/122/91 87/121/89 83/123/85 84/124/87
f 84/87/87 81/88/88 85/82/92 88/81/91
f 91/28/93 90/27/94 86/33/90 87/34/89
f 92/120/95 91/119/93 87/121/89 88/122/91
f 88/81/91 85/82/92 89/77/96 92/76/95
f 95/20/73 94/19/77 90/27/94 91/28/93
f 96/118/74 95/117/73 91/119/93 92/120/95
f 92/76/95 89/77/96 93/71/76 96/70/74
f 23/78/61 25/72/65 61/65/75 93/71/76
f 63/41/38 78/44/82 16/49/43 14/47/39
f 77/93/84 62/86/35 13/92/41 15/98/45
f 78/44/82 82/38/86 18/43/47 16/49/43
f 81/88/88 77/93/84 15/98/45 17/95/49
f 82/38/86 86/33/90 20/37/51 18/43/47
f 85/82/92 81/88/88 17/95/49 19/89/53
f 86/33/90 90/27/94 22/32/55 20/37/51
f 89/77/96 85/82/92 19/89/53 21/83/57
f 90/27/94 94/19/77 24/26/59 22/32/55
f 93/71/76 89/77/96 21/83/57 23/78/61
f 24/26/59 94/19/77 64/14/68 26/18/63
f 69/163/21 71/164/24 72/165/26 70/166/79
f 71/7/24 2/4/2 68/10/15 28/13/72
f 6/16/7 69/11/21 97/21/97 66/22/12
f 70/59/79 5/64/8 65/68/11 98/69/98
f 42/203/34 41/204/37 43/205/36 44/206/40
