# This file uses centimeters as units for non-parametric coordinates.

mtllib terracewindow.mtl
g default
v 1470.025791 11.967284 -555.999906
v 1465.473790 11.943359 -555.999906
v 1465.473790 11.967284 -514.341034
v 1470.025791 11.967284 -514.341034
v 1470.025791 11.967529 -677.999838
v 1465.473790 11.967529 -677.999838
v 1470.025791 11.967284 -719.658893
v 1465.473790 11.967284 -719.658893
v 1470.025791 149.017813 -719.658893
v 1465.473790 149.017813 -719.658893
v 1470.025791 148.942618 -674.013815
v 1465.473790 148.942618 -674.013815
v 1470.025791 158.360952 -674.549764
v 1465.473790 158.360952 -674.549764
v 1470.025791 173.225942 -660.797934
v 1465.473790 173.225942 -660.797934
v 1470.025791 183.366078 -640.698570
v 1465.473790 183.366078 -640.698570
v 1470.025791 186.926869 -616.999963
v 1465.473790 186.926869 -616.999963
v 1470.025791 183.366078 -593.301417
v 1465.473790 183.366078 -593.301417
v 1470.025791 173.225942 -573.201992
v 1465.473790 173.225942 -573.201992
v 1470.025791 158.360952 -559.548612
v 1465.473790 158.360952 -559.548612
v 1470.025791 148.942618 -559.111234
v 1465.473790 148.942618 -559.111234
v 1470.025791 149.017813 -514.341034
v 1465.473790 149.017813 -514.341034
v 1465.333165 6.563964 -555.999906
v 1465.333165 6.563964 -507.999939
v 1470.166416 6.563964 -507.999939
v 1470.166416 6.563964 -555.999906
v 1465.333165 6.563964 -677.999838
v 1470.166416 6.563964 -677.999838
v 1465.333165 6.563964 -725.999957
v 1470.166416 6.563964 -725.999957
v 1465.333165 152.079703 -725.999957
v 1470.166416 152.079703 -725.999957
v 1465.333165 152.642081 -677.999838
v 1470.166416 152.642081 -677.999838
v 1465.333165 161.999990 -677.999838
v 1470.166416 161.999990 -677.999838
v 1465.333165 177.783070 -663.503256
v 1470.166416 177.783070 -663.503256
v 1465.333165 188.549549 -642.162376
v 1470.166416 188.549549 -642.162376
v 1465.333165 192.330311 -616.999963
v 1470.166416 192.330311 -616.999963
v 1465.333165 188.549549 -591.837611
v 1470.166416 188.549549 -591.837611
v 1465.333165 177.783070 -570.496670
v 1470.166416 177.783070 -570.496670
v 1465.333165 161.999990 -555.999906
v 1470.166416 161.999990 -555.999906
v 1465.333165 151.999991 -555.999906
v 1470.166416 151.999991 -555.999906
v 1465.333165 152.079703 -507.999939
v 1470.166416 152.079703 -507.999939
v 1470.166416 151.999991 -559.227689
v 1470.558384 152.642081 -674.013265
v 1464.976109 152.642081 -674.013327
v 1464.576451 151.999991 -559.227689
v 1470.025791 148.942618 -677.999044
v 1465.473790 148.942618 -677.999105
v 1470.025791 148.947745 -555.999906
v 1465.473790 148.946768 -555.999906
v 1465.473790 11.939452 -674.451193
v 1470.025791 11.939452 -674.451193
v 1465.473790 11.939452 -677.999105
v 1465.473790 11.939452 -559.548612
v 1470.025791 11.939452 -559.548612
v 1470.166416 6.563964 -559.230985
v 1465.333165 6.563964 -559.548612
v 1470.166416 6.563964 -674.451193
v 1465.333165 6.563964 -674.451193
vt 0.001992 0.127236
vt 0.001992 0.001906
vt 0.016100 0.018463
vt 0.016038 0.127236
vt 0.381940 0.001906
vt 0.373946 0.018463
vt 0.001992 0.136502
vt 0.016028 0.136502
vt 0.381732 0.127236
vt 0.373760 0.127236
vt 0.373749 0.135360
vt 0.016028 0.436518
vt 0.001992 0.436518
vt 0.381732 0.135664
vt 0.001992 0.445784
vt 0.016101 0.445784
vt 0.407843 0.127236
vt 0.398341 0.136502
vt 0.383409 0.435375
vt 0.373749 0.435376
vt 0.001992 0.571114
vt 0.016100 0.554557
vt 0.449053 0.165088
vt 0.437154 0.172152
vt 0.383409 0.445784
vt 0.373749 0.445782
vt 0.381940 0.571114
vt 0.373946 0.554557
vt 0.477165 0.220810
vt 0.463631 0.224632
vt 0.407843 0.445784
vt 0.398341 0.436775
vt 0.487037 0.286510
vt 0.472928 0.286510
vt 0.449053 0.407933
vt 0.437154 0.400869
vt 0.477165 0.352211
vt 0.463631 0.348388
vt 0.493323 0.571114
vt 0.493323 0.445784
vt 0.507431 0.445784
vt 0.507431 0.554557
vt 0.493323 0.437348
vt 0.507359 0.436518
vt 0.873271 0.571114
vt 0.865277 0.554557
vt 0.493323 0.136502
vt 0.507359 0.136502
vt 0.865080 0.437660
vt 0.865094 0.445784
vt 0.873063 0.445784
vt 0.493323 0.127237
vt 0.507432 0.127237
vt 0.873063 0.437356
vt 0.493323 0.001906
vt 0.507431 0.018463
vt 0.865080 0.127239
vt 0.865080 0.137644
vt 0.874740 0.137646
vt 0.889672 0.436518
vt 0.899174 0.445784
vt 0.873271 0.001906
vt 0.865277 0.018463
vt 0.874740 0.127237
vt 0.940384 0.407933
vt 0.928485 0.400869
vt 0.899174 0.127237
vt 0.889672 0.136245
vt 0.968496 0.352210
vt 0.954961 0.348388
vt 0.940384 0.165088
vt 0.928485 0.172151
vt 0.978367 0.286510
vt 0.964259 0.286510
vt 0.968496 0.220810
vt 0.954961 0.224632
vt 0.869659 0.932827
vt 0.859253 0.932827
vt 0.859253 0.575106
vt 0.868517 0.575106
vt 0.648952 0.683879
vt 0.637066 0.683879
vt 0.637066 0.575106
vt 0.648952 0.575106
vt 0.666972 0.683879
vt 0.655087 0.683879
vt 0.655087 0.575106
vt 0.666972 0.575106
vt 0.684993 0.683881
vt 0.673108 0.683881
vt 0.673108 0.575105
vt 0.684993 0.575105
vt 0.798321 0.663493
vt 0.786435 0.663493
vt 0.786435 0.611012
vt 0.798321 0.611012
vt 0.798321 0.725371
vt 0.786435 0.725371
vt 0.786435 0.575105
vt 0.798321 0.575105
vt 0.798321 0.787249
vt 0.786435 0.787249
vt 0.798321 0.839729
vt 0.786435 0.839729
vt 0.798321 0.875379
vt 0.786435 0.875379
vt 0.630931 0.683878
vt 0.619045 0.683878
vt 0.619045 0.575105
vt 0.630931 0.575105
vt 0.780300 0.875121
vt 0.768414 0.875121
vt 0.768414 0.575105
vt 0.780300 0.575105
vt 0.729683 0.874816
vt 0.728640 0.575106
vt 0.743235 0.575106
vt 0.744258 0.874816
vt 0.804456 0.855802
vt 0.804456 0.800080
vt 0.817076 0.800080
vt 0.817076 0.855802
vt 0.804456 0.734379
vt 0.817076 0.734379
vt 0.804456 0.893653
vt 0.817076 0.893653
vt 0.804456 0.668680
vt 0.817076 0.668680
vt 0.804456 0.612957
vt 0.817076 0.612957
vt 0.804456 0.575106
vt 0.817076 0.575106
vt 0.709884 0.700436
vt 0.709884 0.575106
vt 0.722504 0.575106
vt 0.722504 0.700436
vt 0.691129 0.700436
vt 0.691129 0.575106
vt 0.703749 0.575106
vt 0.703749 0.700436
vt 0.985388 0.571114
vt 0.985388 0.445784
vt 0.998008 0.445784
vt 0.998008 0.571114
vt 0.985388 0.436518
vt 0.998008 0.437348
vt 0.985388 0.136503
vt 0.998008 0.136503
vt 0.985388 0.127237
vt 0.998008 0.127237
vt 0.985388 0.001906
vt 0.998008 0.001906
vt 0.762279 0.575106
vt 0.762279 0.875122
vt 0.750394 0.875122
vt 0.750394 0.575106
vt 0.941742 0.932951
vt 0.929857 0.932951
vt 0.929857 0.575106
vt 0.941742 0.575106
vt 0.923721 0.575106
vt 0.923721 0.932951
vt 0.911836 0.932951
vt 0.911836 0.575106
vt 0.553278 0.590038
vt 0.541393 0.590038
vt 0.540093 0.575106
vt 0.554669 0.575106
vt 0.887680 0.932827
vt 0.875794 0.932827
vt 0.875794 0.575106
vt 0.887680 0.575106
vt 0.841232 0.575106
vt 0.853118 0.575106
vt 0.841232 0.932827
vt 0.905701 0.932830
vt 0.893815 0.932828
vt 0.893815 0.575106
vt 0.905701 0.575168
vt 0.966633 0.955054
vt 0.966633 0.575106
vt 0.979253 0.575106
vt 0.979253 0.955054
vt 0.947878 0.955054
vt 0.947878 0.575106
vt 0.960497 0.575106
vt 0.960497 0.955054
vt 0.581535 0.599540
vt 0.581535 0.575106
vt 0.594155 0.575106
vt 0.594155 0.599540
vt 0.600290 0.601216
vt 0.600290 0.575106
vt 0.612910 0.575106
vt 0.612910 0.601216
vt 0.575400 0.591714
vt 0.560804 0.591714
vt 0.563147 0.575106
vt 0.575032 0.575106
vt 0.835097 0.932827
vt 0.823211 0.932827
vt 0.823211 0.575106
vt 0.835097 0.575106
vn 0.907888 0.377798 0.181681
vn -0.869622 0.234328 0.434567
vn -0.721719 0.492977 -0.485897
vn 0.898476 0.307630 -0.313215
vn 0.794483 0.543582 0.270769
vn -0.795145 0.272017 0.541989
vn -0.821953 0.569556 0.000000
vn 0.943626 0.331012 0.000000
vn 0.865644 -0.234448 0.442374
vn -0.658882 -0.673135 0.335804
vn 0.859209 -0.458796 -0.226422
vn -0.930705 -0.272656 -0.243816
vn 0.702399 -0.541654 0.461786
vn -0.702566 -0.592970 0.393431
vn -0.726760 -0.304584 0.615669
vn 0.577614 -0.133126 0.805382
vn 0.701703 -0.666392 0.252060
vn -0.701738 -0.689439 0.179547
vn 0.701281 -0.711993 0.035647
vn -0.701281 -0.711993 -0.035647
vn 0.701738 -0.689439 -0.179547
vn -0.701703 -0.666392 -0.252060
vn 0.702703 -0.592407 -0.394033
vn -0.702564 -0.540443 -0.462953
vn 0.716719 -0.342123 -0.607673
vn -0.573313 -0.212326 -0.791346
vn 0.570956 -0.584415 -0.576602
vn -0.935502 -0.255567 -0.243970
vn -0.849113 -0.471404 0.238296
vn 0.866486 -0.246713 0.433975
vn -0.716279 -0.697815 0.000000
vn -0.807212 -0.531285 0.257188
vn 0.807179 -0.255143 0.532320
vn 0.716264 -0.697830 -0.000031
vn -0.865070 0.363088 0.346150
vn -0.561317 -0.827601 0.000000
vn -0.809955 -0.586492 0.000000
vn -0.939817 0.248032 -0.235000
vn 0.561317 -0.827601 0.000000
vn 0.864370 0.365012 -0.345876
vn -0.807179 -0.255143 -0.532320
vn -0.716264 -0.697830 0.000031
vn 0.809916 -0.586546 0.000031
vn 0.807212 -0.531285 -0.257188
vn -0.880596 0.421987 -0.215586
vn 0.671095 0.321798 -0.667890
vn 0.866232 -0.278734 0.414667
vn 0.921374 0.331743 -0.202525
vn 0.964069 0.179025 0.196269
vn -0.729686 0.350941 -0.586855
vn -0.871739 0.183448 -0.454333
vn -0.877773 0.318258 0.358086
vn 0.823044 0.154031 -0.546692
vn -0.721711 0.577723 -0.381273
vn 0.721574 0.524356 -0.452086
vn -0.720288 0.671792 -0.172862
vn 0.720258 0.648141 -0.247268
vn -0.719739 0.693279 0.036593
vn 0.719739 0.693279 -0.036593
vn -0.720258 0.648141 0.247268
vn 0.720288 0.671792 0.172862
vn -0.721548 0.524390 0.452089
vn 0.721661 0.577762 0.381309
vn -0.810150 0.157538 0.564658
vn 0.736947 0.332690 0.588410
vn 0.880329 0.191997 0.433771
vn 0.882314 0.421106 0.210217
vn -0.962724 0.176675 -0.204813
vn -0.921146 0.311301 0.233628
vn -0.673366 0.321393 0.665797
vn 0.923562 -0.351272 -0.153754
vn -0.891781 -0.314138 -0.325644
vn -0.889478 -0.426931 0.162972
vn 0.827429 0.368607 -0.423663
vn 0.959465 0.206341 0.191966
vn -0.894433 0.000000 -0.447201
vn 0.716279 -0.697815 0.000000
s 1
g polySurface195
usemtl phong3SG
f 1/81/1 2/82/2 3/83/3 4/84/4
f 7/85/5 8/86/6 6/87/7 5/88/8
f 9/157/9 10/158/10 8/159/6 7/160/5
f 65/89/11 66/90/12 10/91/10 9/92/9
f 15/96/13 16/95/14 14/99/15 13/100/16
f 17/93/17 18/94/18 16/95/14 15/96/13
f 19/97/19 20/98/20 18/94/18 17/93/17
f 21/101/21 22/102/22 20/98/20 19/97/19
f 23/103/23 24/104/24 22/102/22 21/101/21
f 25/105/25 26/106/26 24/104/24 23/103/23
f 29/107/27 30/108/28 68/109/29 67/110/30
f 29/161/27 4/162/4 3/163/3 30/164/28
f 31/1/31 32/2/32 3/3/3 2/4/2
f 33/39/33 34/40/34 1/41/1 4/42/4
f 69/12/35 77/13/36 75/7/37 72/8/38
f 34/40/34 74/43/39 73/44/40 1/41/1
f 37/21/41 35/15/42 6/16/7 8/22/6
f 36/52/43 38/55/44 7/56/5 5/53/8
f 39/27/45 37/21/41 8/22/6 10/28/10
f 38/55/44 40/62/46 9/63/9 7/56/5
f 11/58/47 65/57/11 42/64/48 62/59/49
f 43/31/50 41/25/51 63/19/52 14/32/15
f 62/59/49 42/64/48 44/67/53 13/68/16
f 45/35/54 43/31/50 14/32/15 16/36/14
f 44/67/53 46/71/55 15/72/13 13/68/16
f 47/37/56 45/35/54 16/36/14 18/38/18
f 46/71/55 48/75/57 17/76/17 15/72/13
f 49/33/58 47/37/56 18/38/18 20/34/20
f 48/75/57 50/73/59 19/74/19 17/76/17
f 51/29/60 49/33/58 20/34/20 22/30/22
f 50/73/59 52/69/61 21/70/21 19/74/19
f 53/23/62 51/29/60 22/30/22 24/24/24
f 52/69/61 54/65/63 23/66/23 21/70/21
f 55/17/64 53/23/62 24/24/24 26/18/26
f 54/65/63 56/61/65 25/60/25 23/66/23
f 67/50/30 58/51/66 60/45/67 29/46/27
f 64/14/68 57/9/69 55/17/64 26/18/26
f 60/45/67 33/39/33 4/42/4 29/46/27
f 32/2/32 59/5/70 30/6/28 3/3/3
f 27/111/71 28/112/72 12/113/73 11/114/47
f 62/59/49 61/54/74 27/49/71 11/58/47
f 28/11/72 64/14/68 63/19/52 12/20/73
f 61/54/74 25/60/25 56/61/65 58/51/66
f 13/165/16 14/166/15 63/167/52 62/168/49
f 66/26/12 41/25/51 39/27/45 10/28/10
f 12/20/73 63/19/52 41/25/51 66/26/12
f 42/64/48 65/57/11 9/63/9 40/62/46
f 27/49/71 61/54/74 58/51/66 67/50/30
f 57/9/69 68/10/29 30/6/28 59/5/70
f 28/11/72 68/10/29 57/9/69 64/14/68
f 11/169/47 12/170/73 69/171/35 70/172/75
f 12/77/73 66/78/12 71/79/76 69/80/35
f 66/173/12 65/174/11 71/175/76
f 67/176/30 68/177/29 2/178/2 1/179/1
f 27/49/71 67/50/30 1/41/1 73/44/40
f 70/48/75 76/47/77 36/52/43 5/53/8
f 73/44/40 74/43/39 76/47/77 70/48/75
f 35/15/42 77/13/36 69/12/35 6/16/7
f 63/115/52 64/116/68 61/117/74 62/118/49
f 43/125/50 45/119/54 46/122/55 44/126/53
f 45/119/54 47/120/56 48/121/57 46/122/55
f 47/120/56 49/123/58 50/124/59 48/121/57
f 49/123/58 51/127/60 52/128/61 50/124/59
f 51/127/60 53/129/62 54/130/63 52/128/61
f 53/129/62 55/131/64 56/132/65 54/130/63
f 39/133/45 41/134/51 42/135/48 40/136/46
f 57/137/69 59/138/70 60/139/67 58/140/66
f 37/180/41 39/181/45 40/182/46 38/183/44
f 59/184/70 32/185/32 33/186/33 60/187/67
f 32/141/32 31/142/31 34/143/34 33/144/33
f 31/142/31 75/145/37 74/146/39 34/143/34
f 35/149/42 37/151/41 38/152/44 36/150/43
f 75/145/37 77/147/36 76/148/77 74/146/39
f 77/147/36 35/149/42 36/150/43 76/148/77
f 41/188/51 43/189/50 44/190/53 42/191/48
f 55/192/64 57/193/69 58/194/66 56/195/65
f 73/153/40 70/154/75 69/155/35 72/156/38
f 61/196/74 64/197/68 26/198/26 25/199/25
f 70/48/75 5/53/8 65/57/11 11/58/47
f 72/8/38 2/4/2 68/10/29 28/11/72
f 75/7/37 31/1/31 2/4/2 72/8/38
f 73/200/40 72/201/38 28/202/72 27/203/71
